PathFileType	4	(X/Y/Z)	13_1_40_p0_0-383.trc
DataRate	CameraRate	NumFrames	NumMarkers	Units	OrigDataRate	OrigDataStartFrame	OrigNumFrames
60.0	60.0	7	27	m	60.0	48	384
Frame#	Time	RHip			RKnee			RAnkle			RBigToe			RSmallToe			RHeel			LHip			LKnee			LAnkle			LBigToe			LSmallToe			LHeel			Neck			Head			Nose			RShoulder			RElbow			RWrist			RThumb			RIndex			RPinky			LShoulder			LElbow			LWrist			LThumb			LIndex			LPinky			
		X1	Y1	Z1	X2	Y2	Z2	X3	Y3	Z3	X4	Y4	Z4	X5	Y5	Z5	X6	Y6	Z6	X7	Y7	Z7	X8	Y8	Z8	X9	Y9	Z9	X10	Y10	Z10	X11	Y11	Z11	X12	Y12	Z12	X13	Y13	Z13	X14	Y14	Z14	X15	Y15	Z15	X16	Y16	Z16	X17	Y17	Z17	X18	Y18	Z18	X19	Y19	Z19	X20	Y20	Z20	X21	Y21	Z21	X22	Y22	Z22	X23	Y23	Z23	X24	Y24	Z24	X25	Y25	Z25	X26	Y26	Z26	X27	Y27	Z27	
48	0.8	0.26958052562943874	0.9075058410644614	0.6192871158252167	0.2822449087567813	1.1009343945069066	1.009336337886359	0.26089431033063726	1.3120478243975087	1.3910895116324784	0.25478063592731187	1.0827728693360261	1.451091292553597	0.30111373868462676	1.1228588961991233	1.4525095100593366	0.24775605088362482	1.3892680047823194	1.43553681999827	0.059844375152874364	0.9069836002930273	0.621992170316543	0.061908965388353714	1.0890231357205717	1.0162641156078362	0.07533591617504033	1.2705953558923222	1.4017307876254494	0.10524676245190631	1.1030618981492775	1.4556350688671778	0.04258382211673011	1.127307132215041	1.4489053504971638	0.10179082606386283	1.3408069407781795	1.429469266738399	0.17953462840181494	0.6716173075902704	0.1187307341699772	0.18495492231857014	0.5173821383408407	-0.08168772526499708	0.1688189041777346	0.5114887012115358	0.05523355282249283	0.3189365637981523	0.6849374941017388	0.2124746219252941	0.37774459289768186	0.8540353159662678	0.4297151212498212	0.3102418939046872	0.6454838401562368	0.5632482379563438	0.2598745557443275	0.4890710917141585	0.608257131134742	0.26565776745983277	0.48077570841725514	0.6189138555822554	0.27819988621715	0.5393796519852738	0.6502612612249673	0.03501274314295491	0.7218136355455714	0.1842490216170534	-0.005070190039574533	0.894760701732871	0.4186540677761792	0.03850159687324128	0.6538530572705971	0.5840853696132593	0.09577241857880253	0.5874495549993086	0.6310826996097756	0.08259929406550613	0.5709335390554795	0.6717269504636925	0.06458658742787893	0.6523915173109222	0.6822049079902816
49	0.8166666666666667	0.26904113390631534	0.9045609101997819	0.6150377258713189	0.28116714669768517	1.102677045910281	1.0100919405557083	0.2608965007690485	1.312107139573677	1.3910690010777913	0.25462566113279095	1.0828133608984813	1.4511472840913582	0.29947735859289404	1.1188669822059671	1.4479040404447778	0.2477803621103876	1.389299937423793	1.4353685243638454	0.060154387704760066	0.9065240333783654	0.6223391014802451	0.06158847548185075	1.088971209910437	1.0125153000601852	0.07535318613134591	1.2708197398791665	1.4017239736435512	0.10525887113397593	1.1033040546814987	1.4555925585518208	0.0428246526690762	1.128263489111924	1.449078553660396	0.10199784642645056	1.3413891001432325	1.429339307709335	0.1794910695676003	0.6715262254606683	0.11874369549589818	0.18474642140427652	0.5163094844674161	-0.08494249334988219	0.16885425892108852	0.5115293971213346	0.05519430931290108	0.3189817017841772	0.6850065410589143	0.21255209051851784	0.3768899590708068	0.8524342230894176	0.4295334299905585	0.332131914075903	0.6059393430266898	0.5689876670870437	0.278058032992089	0.46976133446554513	0.5999572218465199	0.27756224207578184	0.4721526064371813	0.6229866535506465	0.2934702650593075	0.5268821346528927	0.6455442014128394	0.03507931575966696	0.7217415225226785	0.18417304167128243	-0.004797791673915909	0.8929150591180325	0.4184547930472731	0.02037390453477978	0.6774764652668674	0.582962011448684	0.05883615422046849	0.640436415445662	0.6432155392560055	0.027684809139737948	0.5782484849346893	0.6780414838765102	0.03272860405172302	0.6334015828022862	0.6861817366703968
50	0.8333333333333334	0.272664836245556	0.9045817221477749	0.6070285445150005	0.27707536246398845	1.1021071351465204	1.0063293226421983	0.26180481332265815	1.3098470298458658	1.3869380254674157	0.25480461220589634	1.0830845236962048	1.4510869631485683	0.3009582431798605	1.1225576655303398	1.4524648877872708	0.24899730526433095	1.3933241761482447	1.4402419229007002	0.05994096566126073	0.9051422020779626	0.6155161851097756	0.06154029765203243	1.089209987194144	1.012366330274976	0.079749818770706	1.2730530104611182	1.4019381832435083	0.1053615562809649	1.1031119246467835	1.4555871406007543	0.045446382735989325	1.1442796839644034	1.451757580891518	0.10214066953713752	1.341455844405096	1.4293941976954925	0.17946430680267586	0.6713092223642861	0.11877297622855795	0.18475987426871568	0.5164224214796906	-0.08490619875596485	0.17287520649040658	0.5138454251779875	0.05442013512460705	0.31876342525951606	0.6841595731525956	0.2091349082610146	0.3762509185448305	0.8533090871644109	0.42871844891050476	0.33907711049018907	0.5967222993015625	0.5733569181447485	0.3287231216751075	0.4397630175595053	0.6078197447776592	0.3152934574466232	0.4678403232810963	0.6209767383561858	0.32605123179581397	0.5502850047799822	0.6445263316997442	0.035272008827876816	0.7220634566167812	0.18407149072058215	-0.0032322728143855447	0.8955325889051222	0.4220953577664124	-0.002925897154895139	0.7023725414376862	0.5818211059015875	0.01576829102133523	0.5723219245754492	0.6327601905939589	0.008022837930113474	0.558603009698224	0.6657603571566382	0.013672620238319534	0.5915773309653188	0.6897680242838095
51	0.85	0.27672978189495173	0.9042297521238227	0.6027774673926001	0.2810891784114793	1.1025743793772331	1.0059320612170162	0.26173551493677666	1.3101882088558212	1.3870039907796106	0.2547514477799352	1.082973034245858	1.4511682139381898	0.30920848166722215	1.1401734826351007	1.4552144689901831	0.24896982903354	1.3934667498279456	1.440193767607606	0.06545780871852488	0.8898999614403894	0.6162635197431778	0.061581001459845824	1.0891096350476837	1.0116076082235668	0.07974557055955256	1.273098190612427	1.4018477832647125	0.1052930057599866	1.1032641062927124	1.4559136331215095	0.04290009935286859	1.12893954788174	1.4493755460776099	0.10288381259667859	1.33913756249973	1.4243410681689304	0.17953213810116958	0.6712430914891072	0.11872132009278732	0.18476670961687963	0.5163747915370909	-0.08491415463886631	0.17290898133654484	0.5139560146163364	0.054385847271495064	0.3187855263238588	0.6841973815458482	0.20908282740210002	0.36709300210831297	0.850201254094463	0.4265791776684704	0.36118060744601505	0.6186501211633157	0.5633851523343393	0.348269822468571	0.4641761701068366	0.6058321344055025	0.35382340908823656	0.47407941799548325	0.6259458521038682	0.34739839176436305	0.5249110477099418	0.6432495190347095	0.03794405472430341	0.7366526191132167	0.18438144469413867	0.0029163422911933456	0.8955247845042701	0.42251868147342797	-0.012766125448143949	0.6894783483109518	0.5842615216363536	-0.010422540397468698	0.5816872073149734	0.6336977650977599	-0.02938362858967268	0.5762569517210739	0.6624415025101655	-0.022820221480436276	0.6469351275529458	0.6864363372109421
52	0.8666666666666667	0.2638056769579864	0.8848219103530661	0.5998348962441727	0.2771658836596077	1.1019807140104068	1.0060803835810463	0.26184244128690193	1.3099822380119404	1.386951409342071	0.2546117525330938	1.0824892281581533	1.4511651123954743	0.3009039579407905	1.121897884233292	1.452442548231614	0.24907504227297392	1.3932743779682177	1.4400601467872296	0.06633699520517418	0.8881126722732555	0.6114432566952891	0.06163608592777984	1.0887731750447385	1.0116169037532687	0.07977770080454671	1.2731968186663747	1.4019475164336763	0.10536632562484083	1.1030827403302423	1.45576440276968	0.04295633107344097	1.1279977719015761	1.4490192432564497	0.10199450436670902	1.3416838309929238	1.429736839694561	0.1797964540419064	0.6702040055290636	0.11551353215053055	0.18478628343339212	0.5164466658876357	-0.08491015562587285	0.17291378521676865	0.5140348959004926	0.05435657716498666	0.31885968902738643	0.6829472215999552	0.20538618923444277	0.36449568289775236	0.8295945497327654	0.42526277961073977	0.37333083175753595	0.6439126739841342	0.567021426564446	0.3816640269550815	0.48791093586266093	0.6124593329352391	0.3808130672643291	0.47597370111005305	0.6189538194007475	0.3900920182508417	0.5060126808995343	0.6471181169886688	0.038018595993463654	0.7366720588266038	0.1842706725185079	0.014287364156650295	0.8640319254305484	0.42286650866543296	-0.027374447363308355	0.6759460699370287	0.5899045818772254	-0.05471339669241228	0.6244531819444684	0.6323279886045862	-0.07068483618118547	0.5966215901277014	0.6625283496427752	-0.054980908199461366	0.6489396627026476	0.6901107940226102
53	0.8833333333333333	0.26832743549558163	0.8848866911075063	0.5962824150673093	0.2770826734014641	1.101845826044944	1.0062773812262862	0.26645758820993465	1.290489708382582	1.3836010411574966	0.254492450545033	1.0827106697576228	1.4513949708008265	0.30073534320566353	1.1217712789079899	1.4525437092151154	0.24910050159839794	1.3932204758100128	1.4400289350649043	0.0708185928009814	0.8884304616595028	0.6072554107287057	0.0677762926517788	1.071234376947268	1.0065076252405183	0.07977251123997958	1.272596556341303	1.4019254190280692	0.10531119053047906	1.1029845577452129	1.4557967546691188	0.04281741731653956	1.1279811241493414	1.4490895756753737	0.09942901236242786	1.325994647783317	1.4269697314535033	0.1796935633008113	0.6701623779458658	0.11553343926337664	0.18477464780585426	0.5165942683444984	-0.08491936607186022	0.17294721774668345	0.5139460905243488	0.054346678611893594	0.3187724479602452	0.6826881617390207	0.20536268091753884	0.35455970343297966	0.8116417543830363	0.42424600393041084	0.38870929277916577	0.6409103675406362	0.561934507589591	0.4158418669141902	0.49648251617817385	0.6107076079056676	0.4009043321437298	0.4882581352585972	0.6197841105507793	0.4169740797645026	0.5475967555391578	0.6398188374827486	0.03802311462964504	0.7369864930191846	0.1842765331416406	0.009299503332820631	0.8624813945385806	0.42330238838186407	-0.04458504952799375	0.6841188191786992	0.5899794250785765	-0.07185252121634655	0.6149948898648966	0.6315608313655362	-0.08933755485207767	0.5794252618702742	0.6682138088113704	-0.09179447555783062	0.6846057901309135	0.6962139296120413
54	0.9	0.2679252429735209	0.8983338457785087	0.5988896077575296	0.27730860455246564	1.1020117844099626	1.0097215365198913	0.2664465598459891	1.2905548455720315	1.3836672143819184	0.25464231601835535	1.0832567229381056	1.451259943326955	0.3005478291785554	1.1220927907801699	1.4526256047453112	0.249140495892243	1.3932105100509682	1.4402147228225695	0.0652644576186103	0.9008495464177546	0.6055603509101573	0.06626927555091214	1.0689055394727387	1.0056632920113344	0.0798156849639776	1.2732918574681578	1.4019869511717398	0.1052000007898098	1.103230530604341	1.4560583335786283	0.0450334464011998	1.1449013463274273	1.452311871471951	0.10254164072116745	1.3442056589728	1.4299561241975287	0.17564402963398543	0.6688513901137028	0.11602770535001511	0.18476398598341523	0.5165330305368843	-0.08497516403255048	0.17293706122861596	0.5139756266172917	0.054296638843771686	0.3182460651840292	0.6804803376315922	0.20233624575289183	0.35835137901071834	0.810655460921393	0.42054663844814166	0.4022146851338667	0.6178992068854615	0.5708311074120025	0.45770717166446306	0.4920327248793687	0.6123594717937146	0.4505148212394629	0.5216883492549989	0.6152432413767286	0.42939647999451097	0.5615584883506007	0.637754042369774	0.03800611468430856	0.7370757889579597	0.18418275868740025	0.019672096835954406	0.8334130499767242	0.4268552541787262	-0.08076050433496774	0.7069089410456811	0.5994950294781353	-0.09306300587390251	0.6159137038376372	0.6302778089466897	-0.14008001963279795	0.6220137898054079	0.6704941834930835	-0.12047598949871614	0.6822022645798246	0.701122219511588
